<svg height="64px" width="64px" version="1.1" id="Layer_1" xmlns="http://www.w3.org/2000/svg" xmlns:xlink="http://www.w3.org/1999/xlink" viewBox="0 0 512 512" xml:space="preserve" fill="#000000"><g id="SVGRepo_bgCarrier" stroke-width="0"></g><g id="SVGRepo_tracerCarrier" stroke-linecap="round" stroke-linejoin="round"></g><g id="SVGRepo_iconCarrier"> <path style="fill:#83CF8F;" d="M256,512c141.028,0,256-114.972,256-256S397.028,0,256,0S0,114.972,0,256S114.972,512,256,512z"></path> <path style="fill:#5D718F;" d="M256,65.23c94.565,0,171.274,76.709,171.274,171.274S350.565,407.778,256,407.778 S84.726,331.069,84.726,236.504S161.435,65.23,256,65.23z"></path> <path style="fill:#6B7F9E;" d="M256,65.23c55.573,0,104.769,26.42,136.108,67.416c12.026,24.051,18.949,51.018,18.949,79.806 c0,97.845-79.442,177.287-177.287,177.287c-34.073,0-65.959-9.657-92.925-26.238c-34.437-31.339-56.12-76.527-56.12-126.816 c0-94.565,76.709-171.274,171.274-171.274V65.23z"></path> <path style="fill:#C6CBD6;" d="M363.137,102.764c31.886,25.509,54.48,62.132,61.768,104.04c-0.547-0.729-1.093-1.822-1.64-3.462 c-3.28,1.093-3.462,1.093-7.47,1.822l-0.182,0.182c-1.64,2.186,0,1.275-2.733,3.644c-3.28,2.733-5.466,6.559-9.11,8.746 c-0.364,3.826,0.364,4.737-0.729,9.475c-0.364,1.64-2.369,6.377-4.555,6.013c-0.729-0.182-3.644-7.653-4.373-9.657 c-1.275-3.462-2.551-6.195-3.462-10.204c-0.547-2.186-0.911-6.195-1.275-7.653c-2.369,0.364-2.186,1.822-4.555,0.182 c-1.64-1.093-0.911-1.822-1.822-3.644c-1.822-1.822-3.826-3.462-5.648-5.284c-1.458-0.547-7.106,0.364-9.657,0 c-4.373-0.364-4.737-0.182-7.288-3.644c-4.555,0.182-4.191,2.004-8.564-1.822c-2.915-2.551-2.369-6.377-6.559-4.191 c-0.182,3.644,1.64,4.373,3.098,6.013c1.093,1.275,2.551,2.186,3.098,3.826c0,0,0.364,1.64,0.364,1.822 c4.191,0.182,5.102-1.64,7.288-3.462c2.186,2.004,0,2.369,3.28,4.009c2.551,1.275,2.004,0.547,3.644,2.551 c0.911,2.733-5.648,10.204-7.835,11.661c-1.64,1.093-2.551,0.364-4.009,1.64c-2.186,1.822,0.364,1.64-3.644,2.915 c-4.191,1.458-8.199,4.737-12.572,4.92c-0.911-2.551-1.822-5.102-2.733-7.653c-2.733-8.746-2.551-5.466-5.466-10.021 c-1.275-2.004-0.729-3.28-1.64-4.92c-0.547-1.275-1.458-1.822-2.369-3.462c-1.275-2.551-2.733-6.377-5.648-6.013 c-0.547,2.004,2.733,8.564,3.462,10.204c0.911,1.64,2.186,2.369,2.551,4.737c0.547,3.28-0.182,2.733,1.64,4.92 c3.644,4.373-0.182,3.644,5.466,8.017c4.191,3.28,3.098,4.191,4.92,8.564c2.733,0.729,11.115-2.915,12.572-1.822 c1.64,3.098-2.004,7.835-2.915,10.568c-3.098,8.746-8.382,8.746-12.572,15.488c-2.186,3.644-3.28,4.191-5.284,8.564 c-2.369,4.92,4.737,18.767,0.547,24.416c-0.911,1.275-4.009,2.186-7.653,6.195c-4.009,4.373,0.182,3.644-1.458,10.932 c-1.275,1.64-2.733,1.822-4.191,2.915c-0.547,1.64-0.182,3.098-1.093,5.102c-0.911,2.551-1.093,1.275-2.551,3.28 c-1.093,1.64-0.911,2.369-2.186,3.826c-1.093,1.275-1.64,1.822-2.551,2.551c-4.737,4.373-15.123,4.555-15.852,3.826 c-2.369-2.004-0.729-2.551-1.458-5.466c-0.547-2.551-2.004-4.737-3.098-6.559l-0.182-0.182c-0.547-0.911-1.093-1.822-1.275-2.733 c-2.004-6.195-1.275-10.932-4.737-17.31c-4.373-8.199,2.369-12.39,2.186-17.127c-0.182-1.275-0.547-2.004-0.729-2.915 c-0.911-5.102-1.275-9.657-4.737-13.665c-3.644-4.373-3.28-2.733-2.004-10.021c1.458-8.199-2.004-6.195-6.924-6.377 c-2.369-7.47-7.106-3.826-11.843-1.64c-2.915,1.275-4.009-0.364-7.47,0c-7.47,1.093-1.64,4.191-11.661-3.644 c-4.191-3.28-1.458-1.64-3.826-5.831c-0.911-1.458-3.28-3.462-4.555-4.92c-3.826-4.737,0.729-9.475,0-14.941 c-1.093-10.021-2.733-1.275,2.915-13.483c2.915-6.559,7.47-6.559,8.564-9.475c0.911-2.551,0.364-4.373,2.186-6.742 c1.64-2.004,4.009-1.458,4.92-4.555c1.275-3.644-1.275-4.191-4.009-4.373c-1.093-3.826-1.093-2.915-0.364-6.559 c0.547-2.004,0-2.915,0.547-5.102c1.093-5.102,9.657,0,12.208-2.186c1.093-2.186,1.275-4.191,0-6.377 c-1.458-2.004-3.098-1.822-4.191-3.826c2.004-1.458,0.547-0.182,2.369-0.547c2.186-0.547,1.822-1.093,4.373-1.64 c2.186-0.364,3.644-2.551,5.831-3.826c3.098-2.004,1.64-3.826,5.466-4.373c6.013-1.093,2.186-0.911,2.733-6.559 c0.911-0.364,1.822-0.729,2.733-1.093c2.004,2.551-0.547,1.458,1.822,3.098c0.547-0.364,1.275-0.729,2.004-1.093 c-0.364-2.733-1.64-2.186-2.369-5.648c-3.098,0.547-4.191,3.098-6.559,2.186s-2.551-4.191-2.369-7.106 c0.911-2.186,5.284-3.28,6.924-3.826c2.733-0.911,2.369-2.733,4.92-5.284c3.28-3.28,0.911,0,2.551-4.191 c3.644-0.182,2.004-0.182,4.009-1.275h0.182h0.182c1.275-0.547,2.915-0.729,4.555-1.275c6.013-2.004,8.564-1.093,12.937,0.729 c3.462,1.458,13.665,1.458,14.394,5.831c-2.551,2.551-4.737,0.729-8.382,0.911c0.729,3.28,0.911,3.28,4.009,4.191 c0.547-1.64-0.182-0.911,0.547-2.004c0.911,0.182,2.004,0.364,2.915,0.547c0.911-3.462,2.186-2.915,5.466-3.28 c-0.547-2.369-1.093-1.64,0.182-3.462c3.462,0.364,0.729,0,2.369,2.733c2.369-0.364,4.737-2.915,8.199-3.28 c2.004-0.182,2.004,0.547,4.92,0.182c2.369-0.182,2.369-1.093,4.737-0.182c0.911-1.64,0-1.64,2.186-2.004 c3.28-0.547,6.195,1.458,9.293,1.822c-2.369-2.915-4.555-2.369-1.64-7.106c3.644-0.729,4.009-0.182,5.648,2.551 c0.911-0.547,1.275-1.093,1.822-1.275L363.137,102.764z M88.735,199.516c7.653-35.166,26.238-66.141,51.747-89.646 c2.004,0.729,4.555,0.182,6.559,0.182c0.729-1.275,1.093-2.551,2.369-2.915c0.547-0.182,1.093-0.182,2.004-0.182 c0.182,0.729,0.364,1.275,0.364,2.004c0,0,0.182,0.547,0,0.364c0-0.182,0.182,0.182,0.182,0.364 c3.462-2.004,0.547-2.004,2.369-5.648c-2.915-0.547-2.551-0.182-4.373-2.004c1.822-2.004,5.102-2.551,7.653-2.369 c-0.182,1.822-0.911,1.64-0.364,3.28c2.004-1.275,3.28-4.555,6.559-3.826c0.547,0.364,1.275,0.911,2.004,1.275 c-1.64,1.458-4.191,1.64-6.195,2.551c-0.911,9.475,3.098,1.458,1.64,8.017c2.369-0.182,4.737-1.822,5.466-3.644 c-0.911-1.093-2.186-1.093-2.915-2.551c0.547-1.822,1.822-3.098,3.462-3.826c1.093-0.547,2.551-0.911,4.009-0.911 c17.492,0.182,9.11,0.911,14.577,3.462c1.275,0.547,3.28,0.729,4.009,1.822c1.093,1.64,0,3.28,1.822,4.555 c1.458,1.093,1.822,0,3.826,2.551c-0.364,1.458-1.458,2.915-3.644,2.915c-2.915,0-1.275-2.004-4.373-1.64 c0,2.915,3.098,4.191,0.182,5.831c-2.369,1.458-0.911-0.547-2.733,0.547c0,0-0.182,0.182-0.364,0.182s-0.182,0.182-0.364,0.364 c-0.364,0.364-0.547,0.729-0.911,0.911c-4.373-1.275-3.644-0.729-6.195-3.644c-0.911-1.093-1.093-1.275-2.915-1.275 c-1.093,0-2.551,0.547-3.644-0.364c2.186-2.733,3.098,0,6.377-1.64c0.547-0.182,4.009-2.915,4.555-3.644 c-0.911-2.186-0.182-0.364-1.458-1.64c-3.098-3.098-4.009-2.369-8.199-2.369c-2.004,2.186-3.462,5.102-5.466,6.195 c-1.275,0.729-2.733,0.911-4.92,0c0.911,3.826,3.28,0.911,3.644,5.466c-1.64-0.364-2.369-1.093-4.009-0.547 c-3.462,1.275-0.364,1.275-0.182,1.822c0,0,1.64,0.182,0,0.911c-1.822,0.729-0.364-0.364-3.826-2.369 c0.547-0.911,0.911-1.822,1.458-2.733c-2.915,0.911-6.377,2.369-9.839,3.826c-3.826,1.822-7.288,4.009-9.475,6.013 c0,3.28,0.547,1.093,0.911,4.92c5.102,0.364,3.462,1.822,8.564,3.28c0.911,0.182,2.186,0.547,3.826,0.729 c0,2.551-2.186,4.373-0.729,6.924c3.644,2.551,3.644-2.369,4.555-5.466c12.026-2.551,6.195-6.013,9.293-12.754 c0.547-0.911,1.093-2.004,2.004-3.28c0.911,0,4.737,0.364,5.466,0.547c2.733,0.547,1.275,1.093,4.191,2.369 c0,2.369-1.275,5.466,2.186,4.92c2.733-0.547,2.004-2.551,5.284-3.098c1.458,3.462,1.093,4.92,1.822,9.11 c7.835,3.098,4.373,5.648,2.915,11.297c0.911,0.547,2.004,0.911,3.098,1.275c0,1.64-0.182,3.28-0.182,4.92 c-0.182,0-8.382-1.822-8.928-2.004c1.275-3.644,3.644-3.644,5.102-7.288c-2.915,0.547-2.733,1.458-4.92,2.186 c-2.004,0.547-3.462,0.182-5.466,0.364c-0.729,2.369,0-2.004,0.182,0.911c0.182,1.093,0.729,0-0.182,1.275 c-2.733-1.275-1.822-4.191-6.924-1.458c1.093,0.547,2.369,1.093,3.462,1.458c-0.182,3.462-0.364,0.911-1.093,3.098 c-1.822,5.831,4.737,2.186,6.559,1.822c-0.364,3.098-2.369,3.098-4.92,3.826c-2.915,0.911-3.826,2.004-6.013,2.551 c0-3.644-0.547-0.547,1.093-3.098c-2.369,0.182-4.009,1.275-6.195,2.186h-0.182c-2.733,1.093-3.28,1.275-3.644,4.92 c-2.369,0.729-5.284,1.64-6.924,3.28c-1.64,1.64-3.462,3.28-5.102,4.92c-0.182,0.182-0.364,0.182-0.364,0.364 c0.547,4.555,0,4.555-2.733,6.377c-2.369,1.458-3.098,1.458-5.284,3.28c-6.924,6.195-3.644,3.28-3.098,13.848 c-1.458-0.364-2.733-0.911-4.191-1.458c-1.093-7.106,0.364-4.737-5.284-6.377c-6.013-1.822-5.284,1.275-7.835,1.822 c-2.733,0.547-4.191-2.551-8.199,0c-2.186,1.458-4.373,2.551-4.92,5.284c-0.729,3.28-2.186,5.648-2.004,9.293 c0.364,9.839,9.293,10.386,11.661,5.831c1.458-3.098,1.093-4.737,6.195-4.009c0.547,2.551-0.364,4.555-0.911,6.559 c-0.364,1.093-1.64,3.28-1.093,4.92c3.644,1.458,3.644-1.275,8.382,1.458c0.364,4.737-2.186,10.021,1.458,12.754 c2.733,2.004,2.915,0.182,5.466-0.182c2.733-0.547,2.186,1.275,4.737,1.64c1.458-1.822,0.911-0.729,1.822-2.733 c1.64-3.644,2.004-2.004,6.013-4.191c0.364-0.182,0.729-0.364,1.093-0.729c0.364,0.911,0.911,1.822,1.458,2.733 c2.915-3.462,3.098,0,6.559,0.911c1.458,0.364,2.369,0.547,3.28,0.547c2.369,0,2.551-1.093,5.831,0 c0.364,0.182,0.911,0.364,1.275,0.364c0,0,0.182,0,0.182,0.182c0,0,0.182,0.182,0.364,0.182c0.547,0.547,0.547,1.275,1.093,1.822 c2.186,2.186,4.555,4.373,6.742,6.377c4.373,1.64,4.373-1.458,9.293,3.28c2.004,2.004,1.093,2.004,2.369,4.555 c0.182,0.364,0.547,0.729,0.729,1.275c0.364,1.275,0.911,2.369,1.458,3.462c2.186,2.915,5.284,1.093,8.382,4.191 c1.822,1.822,0.364,1.275,4.373,2.004c6.195,1.093,3.826,0.364,8.564,4.009c1.822,1.275,2.186,0.547,4.009,1.64 c2.369,3.28,1.822,6.924-0.182,9.839c-6.013,8.928-4.009,7.47-4.191,14.394c-0.182,4.009-1.458,12.39-5.102,13.483 c-13.848,3.826-5.831,6.559-9.293,13.301c-1.093,2.004-1.822,2.369-2.551,4.009c-2.733,6.377-0.911,8.564-8.928,7.106 c0.729,1.275,0.364,0.364,1.093,1.64c2.369,3.644,2.733,6.559-2.186,7.47c-4.191,0.729-2.369,0-2.733,4.555 c-1.64,0.729-2.369,0-3.28,1.093c1.458,2.551,0.182,0.364,2.551,2.004c-0.364,1.458-0.729,2.915-1.093,4.191 c-0.911,3.462-1.275,0.182-1.458,4.191c1.458,0.729,2.369,0.547,3.644,2.186c-0.182,1.275-1.458,4.92-1.822,6.924 c2.004,3.098,3.644,6.195,8.017,6.559c0,2.551,0.547,2.369-1.64,2.733c-1.822,0.364-5.831-1.275-7.47-2.186 c-2.915-1.458-5.466-3.644-7.47-6.377c-1.093-1.64-0.729-0.911-1.822-2.369c-2.004-2.733-1.275-3.826-1.822-5.648 c-0.364-1.093-2.004-2.186-1.275-5.648c0.182-0.911,1.64-5.648-0.182-4.737c-1.822,0.729,1.458,0.364-1.093,1.64 c-0.547-1.64-1.093-4.191-1.458-6.195c-0.729-3.462-1.458-3.644-1.822-5.648c-0.911-4.92,1.275-5.466-1.093-13.483 c-1.458-5.284-0.911-18.038-2.551-24.598c-0.182-1.093-0.547-2.004-0.911-2.551c-1.458-2.369-5.102-3.644-8.017-5.648 c-0.182,0-0.364,0-0.364-0.182c-4.009-2.733-7.835-13.848-10.932-18.038c-1.458-2.004-2.369-1.093-3.098-4.191 c-0.729-2.915,0.364-2.369,1.275-4.737c-4.92-8.928,6.377-8.746,4.009-19.496c-0.547-2.004-2.004-4.737-3.098-5.648 c-2.369,1.093-1.275,1.64-2.369,3.462c-1.822-1.093-3.644-2.186-5.466-3.098c-5.648-5.466-2.551-1.458-4.191-5.102 c-3.462-7.47-6.559-3.28-10.75-6.924c-1.822-1.458-2.186-4.009-5.102-3.462c-4.555,0.547-2.004,1.275-6.742-0.911 c-4.009-1.822-8.199-4.009-10.932-6.559c-0.182-4.009,1.275-4.191-1.093-7.835c-0.364-0.729-0.911-1.275-1.458-2.004V199.516z M142.485,108.231c1.093-0.911,2.004-1.822,3.098-2.733v0.182c0.182,0.364,0.364,0.364,0.547,1.275 c-2.733,0.729-2.733,1.093-3.826,1.275H142.485z M289.162,159.248c1.458,0.911,3.462,1.64,4.555,2.733 c1.458,3.826-0.364,2.004,2.369,6.195c1.64,2.186,1.275,3.826,2.915,4.92c3.098-0.364,0.364,0.547,2.186-1.275 c0.364-0.364,1.275-1.458,1.458-1.822c-0.911-1.458-1.64-1.64-2.551-3.098c3.462-4.555,4.92-2.004,5.648,1.093 c2.186,8.382,5.466,5.831,8.199,5.466s0.364,0.182,2.915,0.729c2.369,0.547,1.275,0,2.915-0.364 c5.831-1.458,1.275,9.839,0.729,10.932c-3.098,0.364-2.551-0.364-4.737-0.547c-4.555-0.547,0.364,2.733-10.386-0.729 c-10.386-3.28-8.199-4.009-10.204,3.098c-2.369-0.182-2.186-0.547-4.373-1.275c-0.911-0.364-1.275-0.547-1.64-0.547h-0.182 c-0.911-0.364,0,0-1.822-1.822c-1.64-1.458-5.466-1.822-8.199-3.28c0-2.369,2.004-4.373-0.364-7.106 c-0.911-0.182-12.572,0.182-14.394,0.729c-3.826,0.729-4.373,4.009-9.657,3.28c-2.915-0.364-1.822-0.182-2.551-1.822 c0.911-0.911,0-0.364,1.64-1.093c0.547-0.182,0.911-0.182,1.458-0.182c8.381-1.275,4.191-5.466,9.293-9.657 c4.373-3.462,0.911,0,3.28-4.191c2.915-0.182,2.551,1.275,5.102,0c2.004-1.093,1.458-2.004,4.373-2.004 c2.551,2.551,2.004,4.191,6.377,6.195c1.64,0.729,2.733,1.275,3.826,2.733c2.004,2.733,0.364,1.822,1.093,3.826 c0.182,0,0.364-0.182,0.547-0.182h0.182c2.369-1.093-1.093-1.458,2.551-4.737c-1.093-0.729-1.822-1.275-2.551-1.822h-0.182 c-2.915-1.64-1.822-0.182-5.466-4.737c-0.911-1.275-1.275-1.458-1.275-3.462c2.733-0.547,3.098,1.458,5.648,3.644 c0.364,0.364,0.729,0.547,1.093,0.911h0.182V159.248z M347.832,277.5c-2.369,1.275-2.733,4.009-4.555,5.648 c-2.004,1.822-4.555,0.911-5.466,4.373c-0.911,4.191,1.64,2.915-1.275,8.382c-1.093,2.004-1.093,7.106,0.547,8.564 c4.737,4.555,7.288-7.106,8.382-10.75c0.911-2.551,1.64-5.466,2.551-8.017C348.925,283.149,350.201,280.78,347.832,277.5z M339.997,154.875c0.364,5.284,3.644,7.47,5.831,9.839c-0.364,2.551-0.911,1.822-0.911,5.466c2.733,2.004,4.737,3.098,8.199,2.186 c0.547-4.373-0.911-4.009-2.186-7.106c0.182-0.364,0.911-0.729,0.911-0.911c0.911-1.275,0.547,0.547,0.911-1.64 c-2.551-0.911-6.742-3.462-7.106-6.924c1.275-1.093,0.911-0.364,1.822-1.093c2.004-1.275,0.547,0.729,1.64-1.458 c-1.093-2.004-2.186-2.369-4.737-1.275c-1.093,0.364-4.009,2.551-4.555,2.915H339.997z M317.586,156.333 c-1.64-2.369-1.64-3.644-4.92-3.644c-1.275,1.458-2.915,3.462-3.644,5.648c-1.093,3.28-0.364,1.093-0.182,4.555 c0,0.182,0,0.364,0,0.364c0,2.186-0.547-0.364-0.182,1.458c2.551-0.547,0.547-0.547,2.551-1.093 c1.822-0.547,7.288-2.369,8.928-1.822c3.826,0.911,6.924,3.826,11.297,0.911c-0.182-3.826-4.92-5.284-8.017-6.924 c0.182-3.462,1.093-0.729,0.911-4.191c-1.093,0-1.822-0.182-2.733,0.182c-2.551,1.093-1.093,1.458-1.093,1.822 c0.182,1.822,2.551-0.364,0,2.004c-0.729,0.547-1.822,0.547-2.733,0.729H317.586z M253.449,129.731 c-0.182,6.195,2.004,4.009,4.009,7.106c-0.911,2.551-1.093,0.547-2.186,3.28c-0.911,2.186,0.182,0.182-0.364,4.191 c1.64,0,4.009-0.547,6.013-0.729c2.915-0.182,2.915-0.547,4.009-3.644c-1.64-2.004-3.28-4.009-4.92-6.013 c-2.186-3.28,0-1.093-0.729-3.826c-0.547-0.911-0.911-2.004-1.458-2.915c-2.915,0.911-2.551,0.729-4.555,2.369L253.449,129.731z"></path> <path style="fill:#FEFEFE;" d="M167.63,234.864h3.644h14.759h3.644c3.644,8.017,1.275,24.78-1.822,33.708h-1.822h-14.759h-1.822 C166.354,259.644,163.986,242.881,167.63,234.864z"></path> <path style="fill:#E4E7ED;" d="M178.562,234.864h7.288h3.644c3.644,8.017,1.275,24.78-1.822,33.708h-1.822h-7.288V234.864z"></path> <path style="fill:#FF7069;" d="M167.63,234.864h3.644h14.759h3.644c0.911,1.822,1.275,4.191,1.64,6.742h-25.144 c0.182-2.551,0.729-4.92,1.64-6.742H167.63z"></path> <path style="fill:#FEFEFE;" d="M120.256,257.64h3.644h14.759h3.644c3.644,8.017,1.275,24.78-1.822,33.708h-1.822H123.9h-1.822 C118.981,282.42,116.612,265.657,120.256,257.64z"></path> <path style="fill:#E4E7ED;" d="M131.189,257.64h7.47h3.644c3.644,8.017,1.275,24.78-1.822,33.708h-1.822h-7.47V257.64z"></path> <path style="fill:#FF7069;" d="M120.256,257.64h3.644h14.759h3.644c0.911,1.822,1.275,4.191,1.64,6.742h-25.144 c0.182-2.551,0.729-4.92,1.64-6.742H120.256z"></path> <path style="fill:#E4E7ED;" d="M344.37,234.864h-3.644h-14.759h-3.644c-3.644,8.017-1.275,24.78,1.822,33.708h1.822h14.759h1.822 C345.646,259.644,348.014,242.881,344.37,234.864z"></path> <path style="fill:#FEFEFE;" d="M333.438,234.864h-7.47h-3.644c-3.644,8.017-1.275,24.78,1.822,33.708h1.822h7.47V234.864z"></path> <path style="fill:#FF7069;" d="M344.37,234.864h-3.644h-14.759h-3.644c-0.911,1.822-1.275,4.191-1.64,6.742h25.144 c-0.182-2.551-0.729-4.92-1.64-6.742H344.37z"></path> <path style="fill:#E4E7ED;" d="M391.926,257.64h-3.644h-14.759h-3.644c-3.644,8.017-1.275,24.78,1.822,33.708h1.822h14.759h1.822 C393.201,282.42,395.57,265.657,391.926,257.64z"></path> <path style="fill:#FEFEFE;" d="M380.811,257.64h-7.288h-3.644c-3.644,8.017-1.275,24.78,1.822,33.708h1.822h7.288V257.64z"></path> <path style="fill:#FF7069;" d="M391.926,257.64h-3.644h-14.759h-3.644c-0.911,1.822-1.275,4.191-1.64,6.742h25.145 c-0.182-2.551-0.729-4.92-1.64-6.742H391.926z"></path> <path style="fill:#FEFEFE;" d="M251.627,450.05l-52.475,9.11l1.458-15.305l44.641-20.043c-0.182-2.915,0,2.733-0.547-9.293 c-0.547-12.026-2.915-65.412-7.653-110.964L62.132,333.62v-13.301l167.812-87.641c-2.915-29.882-4.737-53.386-4.373-60.675 c1.458-22.411,8.017-47.738,30.246-55.209c22.411,7.47,28.789,32.797,30.246,55.209c0.547,7.288-1.458,30.793-4.373,60.675 l167.812,87.641v13.301l-174.918-30.064c-4.737,45.552-6.924,98.938-7.653,110.964c-0.547,12.026-0.364,6.559-0.547,9.293 l44.641,20.043l1.458,15.305l-52.475-9.11c-2.369,9.11-6.195,9.11-8.564,0H251.627z"></path> <g> <polygon style="fill:#E4E7ED;" points="251.627,450.05 199.334,459.342 199.698,455.516 250.898,446.223 "></polygon> <polygon style="fill:#E4E7ED;" points="312.484,455.516 312.666,459.342 260.373,450.05 261.102,446.223 "></polygon> <polygon style="fill:#E4E7ED;" points="237.233,303.556 62.315,333.62 62.315,328.518 236.322,295.721 "></polygon> <polygon style="fill:#E4E7ED;" points="449.868,328.518 449.868,333.62 274.949,303.556 275.678,295.721 "></polygon> <path style="fill:#E4E7ED;" d="M256,116.977c22.411,7.47,28.789,32.797,30.246,55.209c0.547,7.288-1.458,30.793-4.373,60.675 l-7.106,70.878c-4.737,45.552-6.924,98.938-7.653,110.964c-0.547,12.026-0.364,6.559-0.547,9.293l-6.377,26.238 c-0.911,4.373-2.369,6.013-3.826,6.742l20.772-255.271c4.373-43.912-2.551-72.518-21.318-84.544L256,116.977z"></path> </g> <path style="fill:#6B7F9E;" d="M256,129.367c2.915,0,5.648,0.729,8.382,2.186l-2.186,4.555c-2.004-0.547-4.009-0.729-6.195-0.729 c-2.186,0-4.191,0.182-6.195,0.729l-2.186-4.555C250.169,130.278,253.085,129.367,256,129.367z M267.479,133.557 c3.462,2.733,6.195,6.559,8.382,11.115c-2.733-3.28-6.195-5.831-10.021-7.47L267.479,133.557z M246.161,137.201 c-3.826,1.64-7.288,4.191-10.021,7.47c2.004-4.555,4.92-8.382,8.381-11.115L246.161,137.201z"></path> </g></svg>